{
  "start_time": "2025-09-01T21:46:13.039998833+08:00",
  "end_time": "2025-09-01T21:46:37.648861+08:00",
  "duration": 24608862167,
  "source_directory": "/Users/nameko_1/Downloads/test/pkg/converter/test_integration",
  "total_files": 5,
  "processed_files": 5,
  "successful_files": 0,
  "failed_files": 5,
  "skipped_files": 0,
  "total_size_before": 850,
  "total_size_after": 0,
  "space_saved": 850,
  "compression_ratio": 100,
  "conversion_mode": "auto+",
  "file_details": [
    {
      "original_path": "/Users/nameko_1/Downloads/test/pkg/converter/test_integration/test_2.jpg",
      "output_path": "",
      "original_size": 170,
      "output_size": 0,
      "compression_ratio": 0,
      "original_format": ".jpg",
      "output_format": "",
      "processing_time": 12263574000,
      "method": "image_conversion",
      "success": false,
      "error": "both cjxl and FFmpeg lossless JXL conversion failed: exit status 69, output: ffmpeg version 8.0 Copyright (c) 2000-2025 the FFmpeg developers\n  built with Apple clang version 17.0.0 (clang-1700.0.13.3)\n  configuration: --prefix=/opt/homebrew/Cellar/ffmpeg/8.0 --enable-shared --enable-pthreads --enable-version3 --cc=clang --host-cflags= --host-ldflags='-Wl,-ld_classic' --enable-ffplay --enable-gnutls --enable-gpl --enable-libaom --enable-libaribb24 --enable-libbluray --enable-libdav1d --enable-libharfbuzz --enable-libjxl --enable-libmp3lame --enable-libopus --enable-librav1e --enable-librist --enable-librubberband --enable-libsnappy --enable-libsrt --enable-libssh --enable-libsvtav1 --enable-libtesseract --enable-libtheora --enable-libvidstab --enable-libvmaf --enable-libvorbis --enable-libvpx --enable-libwebp --enable-libx264 --enable-libx265 --enable-libxml2 --enable-libxvid --enable-lzma --enable-libfontconfig --enable-libfreetype --enable-frei0r --enable-libass --enable-libopencore-amrnb --enable-libopencore-amrwb --enable-libopenjpeg --enable-libspeex --enable-libsoxr --enable-libzmq --enable-libzimg --disable-libjack --disable-indev=jack --enable-videotoolbox --enable-audiotoolbox --enable-neon\n  libavutil      60.  8.100 / 60.  8.100\n  libavcodec     62. 11.100 / 62. 11.100\n  libavformat    62.  3.100 / 62.  3.100\n  libavdevice    62.  1.100 / 62.  1.100\n  libavfilter    11.  4.100 / 11.  4.100\n  libswscale      9.  1.100 /  9.  1.100\n  libswresample   6.  1.100 /  6.  1.100\n[mjpeg @ 0xc32c50380] decode_sof0: error, len(17) mismatch 1 components\n[jpeg_pipe @ 0xc33034000] Could not find codec parameters for stream 0 (Video: mjpeg (Baseline), none(bt470bg/unknown/unknown)): unspecified size\nConsider increasing the value for the 'analyzeduration' (0) and 'probesize' (5000000) options\nInput #0, jpeg_pipe, from '/Users/nameko_1/Downloads/test/pkg/converter/test_integration/test_2.jpg':\n  Duration: N/A, bitrate: N/A\n  Stream #0:0: Video: mjpeg (Baseline), none(bt470bg/unknown/unknown), 25 fps, 25 tbr, 25 tbn\nStream mapping:\n  Stream #0:0 -\u003e #0:0 (mjpeg (native) -\u003e jpegxl (libjxl))\nPress [q] to stop, [?] for help\n[mjpeg @ 0xc32c50e00] decode_sof0: error, len(17) mismatch 1 components\n[vist#0:0/mjpeg @ 0xc32c40180] [dec:mjpeg @ 0xc33030280] Error submitting packet to decoder: Invalid data found when processing input\n[vist#0:0/mjpeg @ 0xc32c40180] [dec:mjpeg @ 0xc33030280] Decode error rate 1 exceeds maximum 0.666667\n[vist#0:0/mjpeg @ 0xc32c40180] [dec:mjpeg @ 0xc33030280] Task finished with error code: -1145393733 (Error number -1145393733 occurred)\n[vist#0:0/mjpeg @ 0xc32c40180] [dec:mjpeg @ 0xc33030280] Terminating thread with return code -1145393733 (Error number -1145393733 occurred)\n[vf#0:0 @ 0xc32c38f00] Cannot determine format of input 0:0 after EOF\n[vf#0:0 @ 0xc32c38f00] Task finished with error code: -1094995529 (Invalid data found when processing input)\n[vf#0:0 @ 0xc32c38f00] Terminating thread with return code -1094995529 (Invalid data found when processing input)\n[vost#0:0/libjxl @ 0xc32c80000] [enc:libjxl @ 0xc32c481c0] Could not open encoder before EOF\n[vost#0:0/libjxl @ 0xc32c80000] Task finished with error code: -22 (Invalid argument)\n[vost#0:0/libjxl @ 0xc32c80000] Terminating thread with return code -22 (Invalid argument)\n[out#0/image2 @ 0xc33028f00] Nothing was written into output file, because at least one of its streams received no packets.\nframe=    0 fps=0.0 q=0.0 Lsize=       0KiB time=N/A bitrate=N/A speed=N/A elapsed=0:00:00.00    \nConversion failed!\n"
    },
    {
      "original_path": "/Users/nameko_1/Downloads/test/pkg/converter/test_integration/test_1.jpg",
      "output_path": "",
      "original_size": 170,
      "output_size": 0,
      "compression_ratio": 0,
      "original_format": ".jpg",
      "output_format": "",
      "processing_time": 12273682583,
      "method": "image_conversion",
      "success": false,
      "error": "both cjxl and FFmpeg lossless JXL conversion failed: exit status 69, output: ffmpeg version 8.0 Copyright (c) 2000-2025 the FFmpeg developers\n  built with Apple clang version 17.0.0 (clang-1700.0.13.3)\n  configuration: --prefix=/opt/homebrew/Cellar/ffmpeg/8.0 --enable-shared --enable-pthreads --enable-version3 --cc=clang --host-cflags= --host-ldflags='-Wl,-ld_classic' --enable-ffplay --enable-gnutls --enable-gpl --enable-libaom --enable-libaribb24 --enable-libbluray --enable-libdav1d --enable-libharfbuzz --enable-libjxl --enable-libmp3lame --enable-libopus --enable-librav1e --enable-librist --enable-librubberband --enable-libsnappy --enable-libsrt --enable-libssh --enable-libsvtav1 --enable-libtesseract --enable-libtheora --enable-libvidstab --enable-libvmaf --enable-libvorbis --enable-libvpx --enable-libwebp --enable-libx264 --enable-libx265 --enable-libxml2 --enable-libxvid --enable-lzma --enable-libfontconfig --enable-libfreetype --enable-frei0r --enable-libass --enable-libopencore-amrnb --enable-libopencore-amrwb --enable-libopenjpeg --enable-libspeex --enable-libsoxr --enable-libzmq --enable-libzimg --disable-libjack --disable-indev=jack --enable-videotoolbox --enable-audiotoolbox --enable-neon\n  libavutil      60.  8.100 / 60.  8.100\n  libavcodec     62. 11.100 / 62. 11.100\n  libavformat    62.  3.100 / 62.  3.100\n  libavdevice    62.  1.100 / 62.  1.100\n  libavfilter    11.  4.100 / 11.  4.100\n  libswscale      9.  1.100 /  9.  1.100\n  libswresample   6.  1.100 /  6.  1.100\n[mjpeg @ 0x9f4c50380] decode_sof0: error, len(17) mismatch 1 components\n[jpeg_pipe @ 0x9f5034000] Could not find codec parameters for stream 0 (Video: mjpeg (Baseline), none(bt470bg/unknown/unknown)): unspecified size\nConsider increasing the value for the 'analyzeduration' (0) and 'probesize' (5000000) options\nInput #0, jpeg_pipe, from '/Users/nameko_1/Downloads/test/pkg/converter/test_integration/test_1.jpg':\n  Duration: N/A, bitrate: N/A\n  Stream #0:0: Video: mjpeg (Baseline), none(bt470bg/unknown/unknown), 25 fps, 25 tbr, 25 tbn\nStream mapping:\n  Stream #0:0 -\u003e #0:0 (mjpeg (native) -\u003e jpegxl (libjxl))\nPress [q] to stop, [?] for help\n[mjpeg @ 0x9f4c50e00] decode_sof0: error, len(17) mismatch 1 components\n[vist#0:0/mjpeg @ 0x9f4c40180] [dec:mjpeg @ 0x9f5030280] Error submitting packet to decoder: Invalid data found when processing input\n[vist#0:0/mjpeg @ 0x9f4c40180] [dec:mjpeg @ 0x9f5030280] Decode error rate 1 exceeds maximum 0.666667\n[vist#0:0/mjpeg @ 0x9f4c40180] [dec:mjpeg @ 0x9f5030280] Task finished with error code: -1145393733 (Error number -1145393733 occurred)\n[vf#0:0 @ 0x9f4c38f00] Cannot determine format of input 0:0 after EOF\n[vf#0:0 @ 0x9f4c38f00] Task finished with error code: -1094995529 (Invalid data found when processing input)\n[vist#0:0/mjpeg @ 0x9f4c40180] [dec:mjpeg @ 0x9f5030280] Terminating thread with return code -1145393733 (Error number -1145393733 occurred)\n[vf#0:0 @ 0x9f4c38f00] Terminating thread with return code -1094995529 (Invalid data found when processing input)\n[vost#0:0/libjxl @ 0x9f4c80000] [enc:libjxl @ 0x9f4c481c0] Could not open encoder before EOF\n[vost#0:0/libjxl @ 0x9f4c80000] Task finished with error code: -22 (Invalid argument)\n[vost#0:0/libjxl @ 0x9f4c80000] Terminating thread with return code -22 (Invalid argument)\n[out#0/image2 @ 0x9f5038240] Nothing was written into output file, because at least one of its streams received no packets.\nframe=    0 fps=0.0 q=0.0 Lsize=       0KiB time=N/A bitrate=N/A speed=N/A elapsed=0:00:00.00    \nConversion failed!\n"
    },
    {
      "original_path": "/Users/nameko_1/Downloads/test/pkg/converter/test_integration/test_0.jpg",
      "output_path": "",
      "original_size": 170,
      "output_size": 0,
      "compression_ratio": 0,
      "original_format": ".jpg",
      "output_format": "",
      "processing_time": 12273987209,
      "method": "image_conversion",
      "success": false,
      "error": "both cjxl and FFmpeg lossless JXL conversion failed: exit status 69, output: ffmpeg version 8.0 Copyright (c) 2000-2025 the FFmpeg developers\n  built with Apple clang version 17.0.0 (clang-1700.0.13.3)\n  configuration: --prefix=/opt/homebrew/Cellar/ffmpeg/8.0 --enable-shared --enable-pthreads --enable-version3 --cc=clang --host-cflags= --host-ldflags='-Wl,-ld_classic' --enable-ffplay --enable-gnutls --enable-gpl --enable-libaom --enable-libaribb24 --enable-libbluray --enable-libdav1d --enable-libharfbuzz --enable-libjxl --enable-libmp3lame --enable-libopus --enable-librav1e --enable-librist --enable-librubberband --enable-libsnappy --enable-libsrt --enable-libssh --enable-libsvtav1 --enable-libtesseract --enable-libtheora --enable-libvidstab --enable-libvmaf --enable-libvorbis --enable-libvpx --enable-libwebp --enable-libx264 --enable-libx265 --enable-libxml2 --enable-libxvid --enable-lzma --enable-libfontconfig --enable-libfreetype --enable-frei0r --enable-libass --enable-libopencore-amrnb --enable-libopencore-amrwb --enable-libopenjpeg --enable-libspeex --enable-libsoxr --enable-libzmq --enable-libzimg --disable-libjack --disable-indev=jack --enable-videotoolbox --enable-audiotoolbox --enable-neon\n  libavutil      60.  8.100 / 60.  8.100\n  libavcodec     62. 11.100 / 62. 11.100\n  libavformat    62.  3.100 / 62.  3.100\n  libavdevice    62.  1.100 / 62.  1.100\n  libavfilter    11.  4.100 / 11.  4.100\n  libswscale      9.  1.100 /  9.  1.100\n  libswresample   6.  1.100 /  6.  1.100\n[mjpeg @ 0x98ec50380] decode_sof0: error, len(17) mismatch 1 components\n[jpeg_pipe @ 0x98f038000] Could not find codec parameters for stream 0 (Video: mjpeg (Baseline), none(bt470bg/unknown/unknown)): unspecified size\nConsider increasing the value for the 'analyzeduration' (0) and 'probesize' (5000000) options\nInput #0, jpeg_pipe, from '/Users/nameko_1/Downloads/test/pkg/converter/test_integration/test_0.jpg':\n  Duration: N/A, bitrate: N/A\n  Stream #0:0: Video: mjpeg (Baseline), none(bt470bg/unknown/unknown), 25 fps, 25 tbr, 25 tbn\nStream mapping:\n  Stream #0:0 -\u003e #0:0 (mjpeg (native) -\u003e jpegxl (libjxl))\nPress [q] to stop, [?] for help\n[mjpeg @ 0x98ec50e00] decode_sof0: error, len(17) mismatch 1 components\n[vist#0:0/mjpeg @ 0x98ec40180] [dec:mjpeg @ 0x98f034280] Error submitting packet to decoder: Invalid data found when processing input\n[vist#0:0/mjpeg @ 0x98ec40180] [dec:mjpeg @ 0x98f034280] Decode error rate 1 exceeds maximum 0.666667\n[vist#0:0/mjpeg @ 0x98ec40180] [dec:mjpeg @ 0x98f034280] Task finished with error code: -1145393733 (Error number -1145393733 occurred)\n[vf#0:0 @ 0x98ec38f00] Cannot determine format of input 0:0 after EOF\n[vf#0:0 @ 0x98ec38f00] Task finished with error code: -1094995529 (Invalid data found when processing input)\n[vf#0:0 @ 0x98ec38f00] Terminating thread with return code -1094995529 (Invalid data found when processing input)\n[vist#0:0/mjpeg @ 0x98ec40180] [dec:mjpeg @ 0x98f034280] Terminating thread with return code -1145393733 (Error number -1145393733 occurred)\n[vost#0:0/libjxl @ 0x98ec80000] [enc:libjxl @ 0x98ec481c0] Could not open encoder before EOF\n[vost#0:0/libjxl @ 0x98ec80000] Task finished with error code: -22 (Invalid argument)\n[vost#0:0/libjxl @ 0x98ec80000] Terminating thread with return code -22 (Invalid argument)\n[out#0/image2 @ 0x98f02cf00] Nothing was written into output file, because at least one of its streams received no packets.\nframe=    0 fps=0.0 q=0.0 Lsize=       0KiB time=N/A bitrate=N/A speed=N/A elapsed=0:00:00.00    \nConversion failed!\n"
    },
    {
      "original_path": "/Users/nameko_1/Downloads/test/pkg/converter/test_integration/test_4.jpg",
      "output_path": "",
      "original_size": 170,
      "output_size": 0,
      "compression_ratio": 0,
      "original_format": ".jpg",
      "output_format": "",
      "processing_time": 12335054125,
      "method": "image_conversion",
      "success": false,
      "error": "both cjxl and FFmpeg lossless JXL conversion failed: exit status 69, output: ffmpeg version 8.0 Copyright (c) 2000-2025 the FFmpeg developers\n  built with Apple clang version 17.0.0 (clang-1700.0.13.3)\n  configuration: --prefix=/opt/homebrew/Cellar/ffmpeg/8.0 --enable-shared --enable-pthreads --enable-version3 --cc=clang --host-cflags= --host-ldflags='-Wl,-ld_classic' --enable-ffplay --enable-gnutls --enable-gpl --enable-libaom --enable-libaribb24 --enable-libbluray --enable-libdav1d --enable-libharfbuzz --enable-libjxl --enable-libmp3lame --enable-libopus --enable-librav1e --enable-librist --enable-librubberband --enable-libsnappy --enable-libsrt --enable-libssh --enable-libsvtav1 --enable-libtesseract --enable-libtheora --enable-libvidstab --enable-libvmaf --enable-libvorbis --enable-libvpx --enable-libwebp --enable-libx264 --enable-libx265 --enable-libxml2 --enable-libxvid --enable-lzma --enable-libfontconfig --enable-libfreetype --enable-frei0r --enable-libass --enable-libopencore-amrnb --enable-libopencore-amrwb --enable-libopenjpeg --enable-libspeex --enable-libsoxr --enable-libzmq --enable-libzimg --disable-libjack --disable-indev=jack --enable-videotoolbox --enable-audiotoolbox --enable-neon\n  libavutil      60.  8.100 / 60.  8.100\n  libavcodec     62. 11.100 / 62. 11.100\n  libavformat    62.  3.100 / 62.  3.100\n  libavdevice    62.  1.100 / 62.  1.100\n  libavfilter    11.  4.100 / 11.  4.100\n  libswscale      9.  1.100 /  9.  1.100\n  libswresample   6.  1.100 /  6.  1.100\n[mjpeg @ 0x8bd048380] decode_sof0: error, len(17) mismatch 1 components\n[jpeg_pipe @ 0x8bd01c000] Could not find codec parameters for stream 0 (Video: mjpeg (Baseline), none(bt470bg/unknown/unknown)): unspecified size\nConsider increasing the value for the 'analyzeduration' (0) and 'probesize' (5000000) options\nInput #0, jpeg_pipe, from '/Users/nameko_1/Downloads/test/pkg/converter/test_integration/test_4.jpg':\n  Duration: N/A, bitrate: N/A\n  Stream #0:0: Video: mjpeg (Baseline), none(bt470bg/unknown/unknown), 25 fps, 25 tbr, 25 tbn\nStream mapping:\n  Stream #0:0 -\u003e #0:0 (mjpeg (native) -\u003e jpegxl (libjxl))\nPress [q] to stop, [?] for help\n[mjpeg @ 0x8bd048e00] decode_sof0: error, len(17) mismatch 1 components\n[vist#0:0/mjpeg @ 0x8bcc60180] [dec:mjpeg @ 0x8bd014280] Error submitting packet to decoder: Invalid data found when processing input\n[vist#0:0/mjpeg @ 0x8bcc60180] [dec:mjpeg @ 0x8bd014280] Decode error rate 1 exceeds maximum 0.666667\n[vf#0:0 @ 0x8bcc64500] Cannot determine format of input 0:0 after EOF\n[vf#0:0 @ 0x8bcc64500] Task finished with error code: -1094995529 (Invalid data found when processing input)\n[vf#0:0 @ 0x8bcc64500] Terminating thread with return code -1094995529 (Invalid data found when processing input)\n[vost#0:0/libjxl @ 0x8bd078000] [enc:libjxl @ 0x8bd0181c0] Could not open encoder before EOF\n[vost#0:0/libjxl @ 0x8bd078000] Task finished with error code: -22 (Invalid argument)\n[vost#0:0/libjxl @ 0x8bd078000] Terminating thread with return code -22 (Invalid argument)\n[vist#0:0/mjpeg @ 0x8bcc60180] [dec:mjpeg @ 0x8bd014280] Task finished with error code: -1145393733 (Error number -1145393733 occurred)\n[vist#0:0/mjpeg @ 0x8bcc60180] [dec:mjpeg @ 0x8bd014280] Terminating thread with return code -1145393733 (Error number -1145393733 occurred)\n[out#0/image2 @ 0x8bd020240] Nothing was written into output file, because at least one of its streams received no packets.\nframe=    0 fps=0.0 q=0.0 Lsize=       0KiB time=N/A bitrate=N/A speed=N/A elapsed=0:00:00.00    \nConversion failed!\n"
    },
    {
      "original_path": "/Users/nameko_1/Downloads/test/pkg/converter/test_integration/test_3.jpg",
      "output_path": "",
      "original_size": 170,
      "output_size": 0,
      "compression_ratio": 0,
      "original_format": ".jpg",
      "output_format": "",
      "processing_time": 12345206709,
      "method": "image_conversion",
      "success": false,
      "error": "both cjxl and FFmpeg lossless JXL conversion failed: exit status 69, output: ffmpeg version 8.0 Copyright (c) 2000-2025 the FFmpeg developers\n  built with Apple clang version 17.0.0 (clang-1700.0.13.3)\n  configuration: --prefix=/opt/homebrew/Cellar/ffmpeg/8.0 --enable-shared --enable-pthreads --enable-version3 --cc=clang --host-cflags= --host-ldflags='-Wl,-ld_classic' --enable-ffplay --enable-gnutls --enable-gpl --enable-libaom --enable-libaribb24 --enable-libbluray --enable-libdav1d --enable-libharfbuzz --enable-libjxl --enable-libmp3lame --enable-libopus --enable-librav1e --enable-librist --enable-librubberband --enable-libsnappy --enable-libsrt --enable-libssh --enable-libsvtav1 --enable-libtesseract --enable-libtheora --enable-libvidstab --enable-libvmaf --enable-libvorbis --enable-libvpx --enable-libwebp --enable-libx264 --enable-libx265 --enable-libxml2 --enable-libxvid --enable-lzma --enable-libfontconfig --enable-libfreetype --enable-frei0r --enable-libass --enable-libopencore-amrnb --enable-libopencore-amrwb --enable-libopenjpeg --enable-libspeex --enable-libsoxr --enable-libzmq --enable-libzimg --disable-libjack --disable-indev=jack --enable-videotoolbox --enable-audiotoolbox --enable-neon\n  libavutil      60.  8.100 / 60.  8.100\n  libavcodec     62. 11.100 / 62. 11.100\n  libavformat    62.  3.100 / 62.  3.100\n  libavdevice    62.  1.100 / 62.  1.100\n  libavfilter    11.  4.100 / 11.  4.100\n  libswscale      9.  1.100 /  9.  1.100\n  libswresample   6.  1.100 /  6.  1.100\n[mjpeg @ 0x7e6c30380] decode_sof0: error, len(17) mismatch 1 components\n[jpeg_pipe @ 0x7e7058000] Could not find codec parameters for stream 0 (Video: mjpeg (Baseline), none(bt470bg/unknown/unknown)): unspecified size\nConsider increasing the value for the 'analyzeduration' (0) and 'probesize' (5000000) options\nInput #0, jpeg_pipe, from '/Users/nameko_1/Downloads/test/pkg/converter/test_integration/test_3.jpg':\n  Duration: N/A, bitrate: N/A\n  Stream #0:0: Video: mjpeg (Baseline), none(bt470bg/unknown/unknown), 25 fps, 25 tbr, 25 tbn\nStream mapping:\n  Stream #0:0 -\u003e #0:0 (mjpeg (native) -\u003e jpegxl (libjxl))\nPress [q] to stop, [?] for help\n[mjpeg @ 0x7e6c30e00] decode_sof0: error, len(17) mismatch 1 components\n[vist#0:0/mjpeg @ 0x7e6c20180] [dec:mjpeg @ 0x7e7054280] Error submitting packet to decoder: Invalid data found when processing input\n[vist#0:0/mjpeg @ 0x7e6c20180] [dec:mjpeg @ 0x7e7054280] Decode error rate 1 exceeds maximum 0.666667\n[vist#0:0/mjpeg @ 0x7e6c20180] [dec:mjpeg @ 0x7e7054280] Task finished with error code: -1145393733 (Error number -1145393733 occurred)\n[vf#0:0 @ 0x7e6c18f00] Cannot determine format of input 0:0 after EOF\n[vist#0:0/mjpeg @ 0x7e6c20180] [dec:mjpeg @ 0x7e7054280] Terminating thread with return code -1145393733 (Error number -1145393733 occurred)\n[vf#0:0 @ 0x7e6c18f00] Task finished with error code: -1094995529 (Invalid data found when processing input)\n[vf#0:0 @ 0x7e6c18f00] Terminating thread with return code -1094995529 (Invalid data found when processing input)\n[vost#0:0/libjxl @ 0x7e6c60000] [enc:libjxl @ 0x7e6c281c0] Could not open encoder before EOF\n[vost#0:0/libjxl @ 0x7e6c60000] Task finished with error code: -22 (Invalid argument)\n[vost#0:0/libjxl @ 0x7e6c60000] Terminating thread with return code -22 (Invalid argument)\n[out#0/image2 @ 0x7e702cf00] Nothing was written into output file, because at least one of its streams received no packets.\nframe=    0 fps=0.0 q=0.0 Lsize=       0KiB time=N/A bitrate=N/A speed=N/A elapsed=0:00:00.00    \nConversion failed!\n"
    }
  ],
  "format_summary": {},
  "system_info": {
    "os": "darwin",
    "arch": "arm64",
    "cpu_cores": 3,
    "concurrency": 3,
    "memory_used_mb": 0
  },
  "errors": [
    {
      "file": "/Users/nameko_1/Downloads/test/pkg/converter/test_integration/test_2.jpg",
      "error": "both cjxl and FFmpeg lossless JXL conversion failed: exit status 69, output: ffmpeg version 8.0 Copyright (c) 2000-2025 the FFmpeg developers\n  built with Apple clang version 17.0.0 (clang-1700.0.13.3)\n  configuration: --prefix=/opt/homebrew/Cellar/ffmpeg/8.0 --enable-shared --enable-pthreads --enable-version3 --cc=clang --host-cflags= --host-ldflags='-Wl,-ld_classic' --enable-ffplay --enable-gnutls --enable-gpl --enable-libaom --enable-libaribb24 --enable-libbluray --enable-libdav1d --enable-libharfbuzz --enable-libjxl --enable-libmp3lame --enable-libopus --enable-librav1e --enable-librist --enable-librubberband --enable-libsnappy --enable-libsrt --enable-libssh --enable-libsvtav1 --enable-libtesseract --enable-libtheora --enable-libvidstab --enable-libvmaf --enable-libvorbis --enable-libvpx --enable-libwebp --enable-libx264 --enable-libx265 --enable-libxml2 --enable-libxvid --enable-lzma --enable-libfontconfig --enable-libfreetype --enable-frei0r --enable-libass --enable-libopencore-amrnb --enable-libopencore-amrwb --enable-libopenjpeg --enable-libspeex --enable-libsoxr --enable-libzmq --enable-libzimg --disable-libjack --disable-indev=jack --enable-videotoolbox --enable-audiotoolbox --enable-neon\n  libavutil      60.  8.100 / 60.  8.100\n  libavcodec     62. 11.100 / 62. 11.100\n  libavformat    62.  3.100 / 62.  3.100\n  libavdevice    62.  1.100 / 62.  1.100\n  libavfilter    11.  4.100 / 11.  4.100\n  libswscale      9.  1.100 /  9.  1.100\n  libswresample   6.  1.100 /  6.  1.100\n[mjpeg @ 0xc32c50380] decode_sof0: error, len(17) mismatch 1 components\n[jpeg_pipe @ 0xc33034000] Could not find codec parameters for stream 0 (Video: mjpeg (Baseline), none(bt470bg/unknown/unknown)): unspecified size\nConsider increasing the value for the 'analyzeduration' (0) and 'probesize' (5000000) options\nInput #0, jpeg_pipe, from '/Users/nameko_1/Downloads/test/pkg/converter/test_integration/test_2.jpg':\n  Duration: N/A, bitrate: N/A\n  Stream #0:0: Video: mjpeg (Baseline), none(bt470bg/unknown/unknown), 25 fps, 25 tbr, 25 tbn\nStream mapping:\n  Stream #0:0 -\u003e #0:0 (mjpeg (native) -\u003e jpegxl (libjxl))\nPress [q] to stop, [?] for help\n[mjpeg @ 0xc32c50e00] decode_sof0: error, len(17) mismatch 1 components\n[vist#0:0/mjpeg @ 0xc32c40180] [dec:mjpeg @ 0xc33030280] Error submitting packet to decoder: Invalid data found when processing input\n[vist#0:0/mjpeg @ 0xc32c40180] [dec:mjpeg @ 0xc33030280] Decode error rate 1 exceeds maximum 0.666667\n[vist#0:0/mjpeg @ 0xc32c40180] [dec:mjpeg @ 0xc33030280] Task finished with error code: -1145393733 (Error number -1145393733 occurred)\n[vist#0:0/mjpeg @ 0xc32c40180] [dec:mjpeg @ 0xc33030280] Terminating thread with return code -1145393733 (Error number -1145393733 occurred)\n[vf#0:0 @ 0xc32c38f00] Cannot determine format of input 0:0 after EOF\n[vf#0:0 @ 0xc32c38f00] Task finished with error code: -1094995529 (Invalid data found when processing input)\n[vf#0:0 @ 0xc32c38f00] Terminating thread with return code -1094995529 (Invalid data found when processing input)\n[vost#0:0/libjxl @ 0xc32c80000] [enc:libjxl @ 0xc32c481c0] Could not open encoder before EOF\n[vost#0:0/libjxl @ 0xc32c80000] Task finished with error code: -22 (Invalid argument)\n[vost#0:0/libjxl @ 0xc32c80000] Terminating thread with return code -22 (Invalid argument)\n[out#0/image2 @ 0xc33028f00] Nothing was written into output file, because at least one of its streams received no packets.\nframe=    0 fps=0.0 q=0.0 Lsize=       0KiB time=N/A bitrate=N/A speed=N/A elapsed=0:00:00.00    \nConversion failed!\n",
      "time": "2025-09-01T21:46:37.648886+08:00"
    },
    {
      "file": "/Users/nameko_1/Downloads/test/pkg/converter/test_integration/test_1.jpg",
      "error": "both cjxl and FFmpeg lossless JXL conversion failed: exit status 69, output: ffmpeg version 8.0 Copyright (c) 2000-2025 the FFmpeg developers\n  built with Apple clang version 17.0.0 (clang-1700.0.13.3)\n  configuration: --prefix=/opt/homebrew/Cellar/ffmpeg/8.0 --enable-shared --enable-pthreads --enable-version3 --cc=clang --host-cflags= --host-ldflags='-Wl,-ld_classic' --enable-ffplay --enable-gnutls --enable-gpl --enable-libaom --enable-libaribb24 --enable-libbluray --enable-libdav1d --enable-libharfbuzz --enable-libjxl --enable-libmp3lame --enable-libopus --enable-librav1e --enable-librist --enable-librubberband --enable-libsnappy --enable-libsrt --enable-libssh --enable-libsvtav1 --enable-libtesseract --enable-libtheora --enable-libvidstab --enable-libvmaf --enable-libvorbis --enable-libvpx --enable-libwebp --enable-libx264 --enable-libx265 --enable-libxml2 --enable-libxvid --enable-lzma --enable-libfontconfig --enable-libfreetype --enable-frei0r --enable-libass --enable-libopencore-amrnb --enable-libopencore-amrwb --enable-libopenjpeg --enable-libspeex --enable-libsoxr --enable-libzmq --enable-libzimg --disable-libjack --disable-indev=jack --enable-videotoolbox --enable-audiotoolbox --enable-neon\n  libavutil      60.  8.100 / 60.  8.100\n  libavcodec     62. 11.100 / 62. 11.100\n  libavformat    62.  3.100 / 62.  3.100\n  libavdevice    62.  1.100 / 62.  1.100\n  libavfilter    11.  4.100 / 11.  4.100\n  libswscale      9.  1.100 /  9.  1.100\n  libswresample   6.  1.100 /  6.  1.100\n[mjpeg @ 0x9f4c50380] decode_sof0: error, len(17) mismatch 1 components\n[jpeg_pipe @ 0x9f5034000] Could not find codec parameters for stream 0 (Video: mjpeg (Baseline), none(bt470bg/unknown/unknown)): unspecified size\nConsider increasing the value for the 'analyzeduration' (0) and 'probesize' (5000000) options\nInput #0, jpeg_pipe, from '/Users/nameko_1/Downloads/test/pkg/converter/test_integration/test_1.jpg':\n  Duration: N/A, bitrate: N/A\n  Stream #0:0: Video: mjpeg (Baseline), none(bt470bg/unknown/unknown), 25 fps, 25 tbr, 25 tbn\nStream mapping:\n  Stream #0:0 -\u003e #0:0 (mjpeg (native) -\u003e jpegxl (libjxl))\nPress [q] to stop, [?] for help\n[mjpeg @ 0x9f4c50e00] decode_sof0: error, len(17) mismatch 1 components\n[vist#0:0/mjpeg @ 0x9f4c40180] [dec:mjpeg @ 0x9f5030280] Error submitting packet to decoder: Invalid data found when processing input\n[vist#0:0/mjpeg @ 0x9f4c40180] [dec:mjpeg @ 0x9f5030280] Decode error rate 1 exceeds maximum 0.666667\n[vist#0:0/mjpeg @ 0x9f4c40180] [dec:mjpeg @ 0x9f5030280] Task finished with error code: -1145393733 (Error number -1145393733 occurred)\n[vf#0:0 @ 0x9f4c38f00] Cannot determine format of input 0:0 after EOF\n[vf#0:0 @ 0x9f4c38f00] Task finished with error code: -1094995529 (Invalid data found when processing input)\n[vist#0:0/mjpeg @ 0x9f4c40180] [dec:mjpeg @ 0x9f5030280] Terminating thread with return code -1145393733 (Error number -1145393733 occurred)\n[vf#0:0 @ 0x9f4c38f00] Terminating thread with return code -1094995529 (Invalid data found when processing input)\n[vost#0:0/libjxl @ 0x9f4c80000] [enc:libjxl @ 0x9f4c481c0] Could not open encoder before EOF\n[vost#0:0/libjxl @ 0x9f4c80000] Task finished with error code: -22 (Invalid argument)\n[vost#0:0/libjxl @ 0x9f4c80000] Terminating thread with return code -22 (Invalid argument)\n[out#0/image2 @ 0x9f5038240] Nothing was written into output file, because at least one of its streams received no packets.\nframe=    0 fps=0.0 q=0.0 Lsize=       0KiB time=N/A bitrate=N/A speed=N/A elapsed=0:00:00.00    \nConversion failed!\n",
      "time": "2025-09-01T21:46:37.648887+08:00"
    },
    {
      "file": "/Users/nameko_1/Downloads/test/pkg/converter/test_integration/test_0.jpg",
      "error": "both cjxl and FFmpeg lossless JXL conversion failed: exit status 69, output: ffmpeg version 8.0 Copyright (c) 2000-2025 the FFmpeg developers\n  built with Apple clang version 17.0.0 (clang-1700.0.13.3)\n  configuration: --prefix=/opt/homebrew/Cellar/ffmpeg/8.0 --enable-shared --enable-pthreads --enable-version3 --cc=clang --host-cflags= --host-ldflags='-Wl,-ld_classic' --enable-ffplay --enable-gnutls --enable-gpl --enable-libaom --enable-libaribb24 --enable-libbluray --enable-libdav1d --enable-libharfbuzz --enable-libjxl --enable-libmp3lame --enable-libopus --enable-librav1e --enable-librist --enable-librubberband --enable-libsnappy --enable-libsrt --enable-libssh --enable-libsvtav1 --enable-libtesseract --enable-libtheora --enable-libvidstab --enable-libvmaf --enable-libvorbis --enable-libvpx --enable-libwebp --enable-libx264 --enable-libx265 --enable-libxml2 --enable-libxvid --enable-lzma --enable-libfontconfig --enable-libfreetype --enable-frei0r --enable-libass --enable-libopencore-amrnb --enable-libopencore-amrwb --enable-libopenjpeg --enable-libspeex --enable-libsoxr --enable-libzmq --enable-libzimg --disable-libjack --disable-indev=jack --enable-videotoolbox --enable-audiotoolbox --enable-neon\n  libavutil      60.  8.100 / 60.  8.100\n  libavcodec     62. 11.100 / 62. 11.100\n  libavformat    62.  3.100 / 62.  3.100\n  libavdevice    62.  1.100 / 62.  1.100\n  libavfilter    11.  4.100 / 11.  4.100\n  libswscale      9.  1.100 /  9.  1.100\n  libswresample   6.  1.100 /  6.  1.100\n[mjpeg @ 0x98ec50380] decode_sof0: error, len(17) mismatch 1 components\n[jpeg_pipe @ 0x98f038000] Could not find codec parameters for stream 0 (Video: mjpeg (Baseline), none(bt470bg/unknown/unknown)): unspecified size\nConsider increasing the value for the 'analyzeduration' (0) and 'probesize' (5000000) options\nInput #0, jpeg_pipe, from '/Users/nameko_1/Downloads/test/pkg/converter/test_integration/test_0.jpg':\n  Duration: N/A, bitrate: N/A\n  Stream #0:0: Video: mjpeg (Baseline), none(bt470bg/unknown/unknown), 25 fps, 25 tbr, 25 tbn\nStream mapping:\n  Stream #0:0 -\u003e #0:0 (mjpeg (native) -\u003e jpegxl (libjxl))\nPress [q] to stop, [?] for help\n[mjpeg @ 0x98ec50e00] decode_sof0: error, len(17) mismatch 1 components\n[vist#0:0/mjpeg @ 0x98ec40180] [dec:mjpeg @ 0x98f034280] Error submitting packet to decoder: Invalid data found when processing input\n[vist#0:0/mjpeg @ 0x98ec40180] [dec:mjpeg @ 0x98f034280] Decode error rate 1 exceeds maximum 0.666667\n[vist#0:0/mjpeg @ 0x98ec40180] [dec:mjpeg @ 0x98f034280] Task finished with error code: -1145393733 (Error number -1145393733 occurred)\n[vf#0:0 @ 0x98ec38f00] Cannot determine format of input 0:0 after EOF\n[vf#0:0 @ 0x98ec38f00] Task finished with error code: -1094995529 (Invalid data found when processing input)\n[vf#0:0 @ 0x98ec38f00] Terminating thread with return code -1094995529 (Invalid data found when processing input)\n[vist#0:0/mjpeg @ 0x98ec40180] [dec:mjpeg @ 0x98f034280] Terminating thread with return code -1145393733 (Error number -1145393733 occurred)\n[vost#0:0/libjxl @ 0x98ec80000] [enc:libjxl @ 0x98ec481c0] Could not open encoder before EOF\n[vost#0:0/libjxl @ 0x98ec80000] Task finished with error code: -22 (Invalid argument)\n[vost#0:0/libjxl @ 0x98ec80000] Terminating thread with return code -22 (Invalid argument)\n[out#0/image2 @ 0x98f02cf00] Nothing was written into output file, because at least one of its streams received no packets.\nframe=    0 fps=0.0 q=0.0 Lsize=       0KiB time=N/A bitrate=N/A speed=N/A elapsed=0:00:00.00    \nConversion failed!\n",
      "time": "2025-09-01T21:46:37.648887+08:00"
    },
    {
      "file": "/Users/nameko_1/Downloads/test/pkg/converter/test_integration/test_4.jpg",
      "error": "both cjxl and FFmpeg lossless JXL conversion failed: exit status 69, output: ffmpeg version 8.0 Copyright (c) 2000-2025 the FFmpeg developers\n  built with Apple clang version 17.0.0 (clang-1700.0.13.3)\n  configuration: --prefix=/opt/homebrew/Cellar/ffmpeg/8.0 --enable-shared --enable-pthreads --enable-version3 --cc=clang --host-cflags= --host-ldflags='-Wl,-ld_classic' --enable-ffplay --enable-gnutls --enable-gpl --enable-libaom --enable-libaribb24 --enable-libbluray --enable-libdav1d --enable-libharfbuzz --enable-libjxl --enable-libmp3lame --enable-libopus --enable-librav1e --enable-librist --enable-librubberband --enable-libsnappy --enable-libsrt --enable-libssh --enable-libsvtav1 --enable-libtesseract --enable-libtheora --enable-libvidstab --enable-libvmaf --enable-libvorbis --enable-libvpx --enable-libwebp --enable-libx264 --enable-libx265 --enable-libxml2 --enable-libxvid --enable-lzma --enable-libfontconfig --enable-libfreetype --enable-frei0r --enable-libass --enable-libopencore-amrnb --enable-libopencore-amrwb --enable-libopenjpeg --enable-libspeex --enable-libsoxr --enable-libzmq --enable-libzimg --disable-libjack --disable-indev=jack --enable-videotoolbox --enable-audiotoolbox --enable-neon\n  libavutil      60.  8.100 / 60.  8.100\n  libavcodec     62. 11.100 / 62. 11.100\n  libavformat    62.  3.100 / 62.  3.100\n  libavdevice    62.  1.100 / 62.  1.100\n  libavfilter    11.  4.100 / 11.  4.100\n  libswscale      9.  1.100 /  9.  1.100\n  libswresample   6.  1.100 /  6.  1.100\n[mjpeg @ 0x8bd048380] decode_sof0: error, len(17) mismatch 1 components\n[jpeg_pipe @ 0x8bd01c000] Could not find codec parameters for stream 0 (Video: mjpeg (Baseline), none(bt470bg/unknown/unknown)): unspecified size\nConsider increasing the value for the 'analyzeduration' (0) and 'probesize' (5000000) options\nInput #0, jpeg_pipe, from '/Users/nameko_1/Downloads/test/pkg/converter/test_integration/test_4.jpg':\n  Duration: N/A, bitrate: N/A\n  Stream #0:0: Video: mjpeg (Baseline), none(bt470bg/unknown/unknown), 25 fps, 25 tbr, 25 tbn\nStream mapping:\n  Stream #0:0 -\u003e #0:0 (mjpeg (native) -\u003e jpegxl (libjxl))\nPress [q] to stop, [?] for help\n[mjpeg @ 0x8bd048e00] decode_sof0: error, len(17) mismatch 1 components\n[vist#0:0/mjpeg @ 0x8bcc60180] [dec:mjpeg @ 0x8bd014280] Error submitting packet to decoder: Invalid data found when processing input\n[vist#0:0/mjpeg @ 0x8bcc60180] [dec:mjpeg @ 0x8bd014280] Decode error rate 1 exceeds maximum 0.666667\n[vf#0:0 @ 0x8bcc64500] Cannot determine format of input 0:0 after EOF\n[vf#0:0 @ 0x8bcc64500] Task finished with error code: -1094995529 (Invalid data found when processing input)\n[vf#0:0 @ 0x8bcc64500] Terminating thread with return code -1094995529 (Invalid data found when processing input)\n[vost#0:0/libjxl @ 0x8bd078000] [enc:libjxl @ 0x8bd0181c0] Could not open encoder before EOF\n[vost#0:0/libjxl @ 0x8bd078000] Task finished with error code: -22 (Invalid argument)\n[vost#0:0/libjxl @ 0x8bd078000] Terminating thread with return code -22 (Invalid argument)\n[vist#0:0/mjpeg @ 0x8bcc60180] [dec:mjpeg @ 0x8bd014280] Task finished with error code: -1145393733 (Error number -1145393733 occurred)\n[vist#0:0/mjpeg @ 0x8bcc60180] [dec:mjpeg @ 0x8bd014280] Terminating thread with return code -1145393733 (Error number -1145393733 occurred)\n[out#0/image2 @ 0x8bd020240] Nothing was written into output file, because at least one of its streams received no packets.\nframe=    0 fps=0.0 q=0.0 Lsize=       0KiB time=N/A bitrate=N/A speed=N/A elapsed=0:00:00.00    \nConversion failed!\n",
      "time": "2025-09-01T21:46:37.648888+08:00"
    },
    {
      "file": "/Users/nameko_1/Downloads/test/pkg/converter/test_integration/test_3.jpg",
      "error": "both cjxl and FFmpeg lossless JXL conversion failed: exit status 69, output: ffmpeg version 8.0 Copyright (c) 2000-2025 the FFmpeg developers\n  built with Apple clang version 17.0.0 (clang-1700.0.13.3)\n  configuration: --prefix=/opt/homebrew/Cellar/ffmpeg/8.0 --enable-shared --enable-pthreads --enable-version3 --cc=clang --host-cflags= --host-ldflags='-Wl,-ld_classic' --enable-ffplay --enable-gnutls --enable-gpl --enable-libaom --enable-libaribb24 --enable-libbluray --enable-libdav1d --enable-libharfbuzz --enable-libjxl --enable-libmp3lame --enable-libopus --enable-librav1e --enable-librist --enable-librubberband --enable-libsnappy --enable-libsrt --enable-libssh --enable-libsvtav1 --enable-libtesseract --enable-libtheora --enable-libvidstab --enable-libvmaf --enable-libvorbis --enable-libvpx --enable-libwebp --enable-libx264 --enable-libx265 --enable-libxml2 --enable-libxvid --enable-lzma --enable-libfontconfig --enable-libfreetype --enable-frei0r --enable-libass --enable-libopencore-amrnb --enable-libopencore-amrwb --enable-libopenjpeg --enable-libspeex --enable-libsoxr --enable-libzmq --enable-libzimg --disable-libjack --disable-indev=jack --enable-videotoolbox --enable-audiotoolbox --enable-neon\n  libavutil      60.  8.100 / 60.  8.100\n  libavcodec     62. 11.100 / 62. 11.100\n  libavformat    62.  3.100 / 62.  3.100\n  libavdevice    62.  1.100 / 62.  1.100\n  libavfilter    11.  4.100 / 11.  4.100\n  libswscale      9.  1.100 /  9.  1.100\n  libswresample   6.  1.100 /  6.  1.100\n[mjpeg @ 0x7e6c30380] decode_sof0: error, len(17) mismatch 1 components\n[jpeg_pipe @ 0x7e7058000] Could not find codec parameters for stream 0 (Video: mjpeg (Baseline), none(bt470bg/unknown/unknown)): unspecified size\nConsider increasing the value for the 'analyzeduration' (0) and 'probesize' (5000000) options\nInput #0, jpeg_pipe, from '/Users/nameko_1/Downloads/test/pkg/converter/test_integration/test_3.jpg':\n  Duration: N/A, bitrate: N/A\n  Stream #0:0: Video: mjpeg (Baseline), none(bt470bg/unknown/unknown), 25 fps, 25 tbr, 25 tbn\nStream mapping:\n  Stream #0:0 -\u003e #0:0 (mjpeg (native) -\u003e jpegxl (libjxl))\nPress [q] to stop, [?] for help\n[mjpeg @ 0x7e6c30e00] decode_sof0: error, len(17) mismatch 1 components\n[vist#0:0/mjpeg @ 0x7e6c20180] [dec:mjpeg @ 0x7e7054280] Error submitting packet to decoder: Invalid data found when processing input\n[vist#0:0/mjpeg @ 0x7e6c20180] [dec:mjpeg @ 0x7e7054280] Decode error rate 1 exceeds maximum 0.666667\n[vist#0:0/mjpeg @ 0x7e6c20180] [dec:mjpeg @ 0x7e7054280] Task finished with error code: -1145393733 (Error number -1145393733 occurred)\n[vf#0:0 @ 0x7e6c18f00] Cannot determine format of input 0:0 after EOF\n[vist#0:0/mjpeg @ 0x7e6c20180] [dec:mjpeg @ 0x7e7054280] Terminating thread with return code -1145393733 (Error number -1145393733 occurred)\n[vf#0:0 @ 0x7e6c18f00] Task finished with error code: -1094995529 (Invalid data found when processing input)\n[vf#0:0 @ 0x7e6c18f00] Terminating thread with return code -1094995529 (Invalid data found when processing input)\n[vost#0:0/libjxl @ 0x7e6c60000] [enc:libjxl @ 0x7e6c281c0] Could not open encoder before EOF\n[vost#0:0/libjxl @ 0x7e6c60000] Task finished with error code: -22 (Invalid argument)\n[vost#0:0/libjxl @ 0x7e6c60000] Terminating thread with return code -22 (Invalid argument)\n[out#0/image2 @ 0x7e702cf00] Nothing was written into output file, because at least one of its streams received no packets.\nframe=    0 fps=0.0 q=0.0 Lsize=       0KiB time=N/A bitrate=N/A speed=N/A elapsed=0:00:00.00    \nConversion failed!\n",
      "time": "2025-09-01T21:46:37.648888+08:00"
    }
  ]
}